# xmcd CD database file
#
# Track frame offsets:
#	150
#	22192
#	43080
#	65122
#
# Disc length: 1141 seconds
#
# Revision: 0
# Processed by: cddbd v1.5.1PL0 Copyright (c) Steve Scherf et al.
# Submitted via: CDex 1.51
#
DISCID=38047304
DTITLE=神山さやか - Honey Moon
DYEAR=2002
DGENRE=Japanese Pop
TTITLE0=Honey Moon
TTITLE1=Beach
TTITLE2=Honey Moon (Instrumental)
TTITLE3=Beach (Instrumental)
EXTD=YEAR: 2002
EXTT0=
EXTT1=
EXTT2=
EXTT3=
PLAYORDER=
